<svg width="69" height="71" viewBox="0 0 69 71" fill="none" xmlns="http://www.w3.org/2000/svg">
<g id="Vector" filter="url(#filter0_d_3_16703)">
<path d="M65.8995 35.0142C66.5176 35.0142 67.0206 34.4902 66.9994 33.8444C66.8655 29.7741 66.0337 25.7587 64.5407 21.9901C62.9049 17.861 60.5071 14.1091 57.4844 10.9488C54.4617 7.78848 50.8733 5.28158 46.9239 3.57123C43.3195 2.01025 39.4789 1.14066 35.5858 1.00068C34.9681 0.978468 34.4669 1.50441 34.4669 2.1506C34.4669 2.7968 34.9681 3.31838 35.5858 3.34223C39.1848 3.48121 42.7345 4.2898 46.0674 5.73317C49.7452 7.32592 53.0869 9.66046 55.9018 12.6035C58.7167 15.5465 60.9495 19.0404 62.4729 22.8856C63.8535 26.3702 64.6268 30.0816 64.7598 33.8445C64.7826 34.4902 65.2814 35.0142 65.8995 35.0142Z" fill="#FF0000"/>
<path d="M61.2843 35.0143C61.883 35.0143 62.3706 34.5066 62.3473 33.8811C62.2192 30.4369 61.5082 27.0406 60.2445 23.8507C58.8423 20.3114 56.7871 17.0956 54.1962 14.3867C51.6053 11.6779 48.5295 9.52912 45.1443 8.0631C42.0934 6.7418 38.8449 5.99844 35.5508 5.86455C34.9525 5.84024 34.4669 6.35 34.4669 6.97599C34.4669 7.60197 34.9525 8.10694 35.5507 8.13331C38.5601 8.26593 41.5267 8.95008 44.3146 10.1574C47.4367 11.5095 50.2735 13.4913 52.6631 15.9897C55.0526 18.488 56.9481 21.454 58.2413 24.7182C59.3961 27.6331 60.0505 30.7348 60.1773 33.8811C60.2025 34.5066 60.6855 35.0143 61.2843 35.0143Z" fill="#FF0000"/>
<path d="M55.9482 25.7112C56.9775 28.3093 57.5668 31.0717 57.6926 33.875C57.7208 34.5037 57.2301 35.0142 56.6281 35.0142C56.0262 35.0142 55.5411 34.5036 55.51 33.8751C55.386 31.3712 54.8539 28.905 53.9342 26.5835C52.8753 23.9106 51.3232 21.482 49.3665 19.4362C47.4099 17.3905 45.087 15.7677 42.5305 14.6606C40.3101 13.699 37.9513 13.1427 35.5565 13.0131C34.9553 12.9806 34.4669 12.4734 34.4669 11.844C34.4669 11.2146 34.9552 10.7016 35.5565 10.7311C38.2378 10.8626 40.8799 11.4787 43.3648 12.5549C46.1857 13.7766 48.7489 15.5672 50.908 17.8246C53.0671 20.082 54.7798 22.7618 55.9482 25.7112Z" fill="#FF0000"/>
<path d="M3.1005 33.9857C2.48245 33.9857 1.97941 34.5098 2.00065 35.1556C2.13454 39.2259 2.96626 43.2413 4.45926 47.0099C6.09513 51.139 8.49287 54.8909 11.5156 58.0512C14.5383 61.2115 18.1267 63.7184 22.0761 65.4288C25.6805 66.9897 29.5211 67.8593 33.4142 67.9993C34.0319 68.0215 34.5331 67.4956 34.5331 66.8494C34.5331 66.2032 34.0319 65.6816 33.4142 65.6578C29.8152 65.5188 26.2655 64.7102 22.9326 63.2668C19.2548 61.6741 15.9131 59.3395 13.0982 56.3965C10.2833 53.4535 8.05046 49.9596 6.52706 46.1144C5.14654 42.6298 4.37316 38.9184 4.24024 35.1555C4.21743 34.5098 3.71855 33.9857 3.1005 33.9857Z" fill="#FF0000"/>
<path d="M7.71574 33.9857C7.11701 33.9857 6.62945 34.4934 6.6527 35.1189C6.78076 38.5631 7.49175 41.9594 8.75552 45.1493C10.1577 48.6886 12.2129 51.9044 14.8038 54.6133C17.3947 57.3221 20.4705 59.4709 23.8557 60.9369C26.9066 62.2582 30.1551 63.0016 33.4492 63.1354C34.0475 63.1598 34.5331 62.65 34.5331 62.024C34.5331 61.398 34.0475 60.8931 33.4493 60.8667C30.4399 60.7341 27.4733 60.0499 24.6854 58.8426C21.5633 57.4905 18.7265 55.5087 16.3369 53.0103C13.9474 50.512 12.0519 47.546 10.7587 44.2818C9.60387 41.3669 8.94952 38.2652 8.82267 35.1189C8.79745 34.4934 8.31447 33.9857 7.71574 33.9857Z" fill="#FF0000"/>
<path d="M13.0518 43.2888C12.0225 40.6907 11.4332 37.9283 11.3074 35.125C11.2792 34.4963 11.7699 33.9858 12.3719 33.9858C12.9738 33.9858 13.4589 34.4964 13.49 35.1249C13.614 37.6288 14.1461 40.095 15.0658 42.4165C16.1247 45.0894 17.6768 47.518 19.6335 49.5638C21.5901 51.6095 23.913 53.2323 26.4695 54.3394C28.6899 55.301 31.0487 55.8573 33.4435 55.9869C34.0447 56.0194 34.5331 56.5266 34.5331 57.156C34.5331 57.7854 34.0448 58.2984 33.4435 58.2689C30.7622 58.1374 28.1201 57.5213 25.6352 56.4451C22.8143 55.2234 20.2511 53.4328 18.092 51.1754C15.9329 48.918 14.2203 46.2382 13.0518 43.2888Z" fill="#FF0000"/>
<path d="M44.0658 33.9858C44.0658 40.0583 39.3575 44.981 33.5494 44.981C27.7413 44.981 23.0329 40.0583 23.0329 33.9858C23.0329 27.9133 27.7413 22.9905 33.5494 22.9905C39.3575 22.9905 44.0658 27.9133 44.0658 33.9858Z" fill="#FF0000"/>
</g>
<defs>
<filter id="filter0_d_3_16703" x="0" y="0" width="69" height="71" filterUnits="userSpaceOnUse" color-interpolation-filters="sRGB">
<feFlood flood-opacity="0" result="BackgroundImageFix"/>
<feColorMatrix in="SourceAlpha" type="matrix" values="0 0 0 0 0 0 0 0 0 0 0 0 0 0 0 0 0 0 127 0" result="hardAlpha"/>
<feOffset dy="1"/>
<feGaussianBlur stdDeviation="1"/>
<feComposite in2="hardAlpha" operator="out"/>
<feColorMatrix type="matrix" values="0 0 0 0 0 0 0 0 0 0 0 0 0 0 0 0 0 0 0.25 0"/>
<feBlend mode="normal" in2="BackgroundImageFix" result="effect1_dropShadow_3_16703"/>
<feBlend mode="normal" in="SourceGraphic" in2="effect1_dropShadow_3_16703" result="shape"/>
</filter>
</defs>
</svg>
