<svg xmlns="http://www.w3.org/2000/svg" xmlns:xlink="http://www.w3.org/1999/xlink" version="1.1" x="0px" y="0px" viewBox="0 0 100 125" enable-background="new 0 0 100 100" xml:space="preserve"><path d="M48.95,53.95c8.3,0,15.06-6.76,15.06-15.06s-6.75-15.06-15.06-15.06s-15.06,6.76-15.06,15.06S40.64,53.95,48.95,53.95z   M48.95,28.13c5.93,0,10.76,4.82,10.76,10.76s-4.82,10.76-10.76,10.76s-10.76-4.82-10.76-10.76S43.01,28.13,48.95,28.13z"/><g><path d="M49,16c-18.2,0-33,14.8-33,33c0,9.43,3.98,17.95,10.35,23.97c1.16,1.1,2.4,2.11,3.71,3.03c5.37,3.77,11.89,6,18.94,6   s13.57-2.23,18.94-6c1.28-0.9,2.49-1.89,3.63-2.95C77.98,67.02,82,58.47,82,49C82,30.8,67.2,16,49,16z M49,78   c-6.71,0-12.88-2.29-17.8-6.13c2.41-5.69,9.45-10.75,17.75-10.75c8.33,0,15.39,5.1,17.78,10.81C61.82,75.73,55.67,78,49,78z    M70.04,68.92c-0.72-1.38-1.64-2.7-2.72-3.93c-1.06-1.21-2.29-2.33-3.65-3.33c-3.99-2.94-9.13-4.85-14.73-4.85   c-9.42,0-17.53,5.38-21.06,12.04C23,63.66,20,56.67,20,49c0-15.99,13.01-29,29-29s29,13.01,29,29C78,56.71,74.97,63.72,70.04,68.92   z"/></g></svg>