<svg width="177" height="99" viewBox="0 0 177 99" fill="none" xmlns="http://www.w3.org/2000/svg">
<g id="undraw_alert_re_j2op 1" clip-path="url(#clip0_2_13187)">
<path id="Path 133" d="M14.9695 81.5548C16.4793 83.9413 18.3185 86.1037 20.4331 87.9784C20.4814 88.0223 20.531 88.0644 20.5806 88.1076L25.0953 85.4319C25.0619 85.3866 25.0251 85.3358 24.9856 85.2802C22.6283 82.0068 11.9822 60.2292 11.9172 55.4066C11.9089 55.8057 8.0858 70.7943 14.9695 81.5548Z" fill="#6ECC5E"/>
<path id="Path 134" d="M19.5619 88.4947C19.6316 88.5259 19.7028 88.5563 19.7745 88.5853L23.1616 86.5779C23.1087 86.5475 23.047 86.5115 22.9763 86.4711C21.8168 85.7955 18.3667 83.7655 14.9698 81.5546C11.3199 79.1784 7.72927 76.5949 7.1062 75.2589C7.23586 75.5664 11.2546 84.9093 19.5619 88.4947Z" fill="#5CA64F"/>
<path id="Path 133_2" d="M162.646 90.3341C162.57 93.1549 162.096 95.9511 161.238 98.6401C161.219 98.7025 161.198 98.764 161.178 98.8264H155.926C155.932 98.7704 155.937 98.708 155.943 98.6401C156.293 94.6249 154.293 70.4785 151.879 66.2994C152.09 66.6384 163.053 77.576 162.646 90.3341Z" fill="#6ECC5E"/>
<path id="Path 134_2" d="M162.252 98.6401C162.208 98.7025 162.162 98.7649 162.115 98.8264H158.176C158.205 98.7733 158.24 98.7109 158.28 98.6401C158.931 97.4685 160.857 93.9655 162.645 90.3341C164.566 86.4316 166.33 82.3811 166.182 80.9151C166.228 81.2456 167.557 91.3251 162.252 98.6401Z" fill="#5BA64F"/>
<path id="Vector" d="M85.2155 98.6807H24.4843C23.0448 98.6791 21.6648 98.108 20.6469 97.0928C19.6291 96.0775 19.0566 94.701 19.0549 93.2652V5.41551C19.0566 3.97972 19.6291 2.60321 20.6469 1.58796C21.6648 0.572702 23.0448 0.00162075 24.4843 0H85.2155C86.655 0.00162075 88.035 0.572701 89.0528 1.58795C90.0707 2.6032 90.6432 3.97972 90.6448 5.4155V93.2653C90.6432 94.701 90.0707 96.0775 89.0528 97.0928C88.035 98.108 86.655 98.6791 85.2155 98.6807Z" fill="#5CA64F"/>
<path id="Vector_2" d="M85.3224 95.2255H24.3774C23.9337 95.225 23.5083 95.049 23.1945 94.736C22.8807 94.4231 22.7042 93.9987 22.7037 93.5561V5.12459C22.7042 4.68199 22.8807 4.25767 23.1945 3.94471C23.5083 3.63175 23.9337 3.45571 24.3774 3.4552H85.3224C85.7662 3.45571 86.1916 3.63175 86.5053 3.94471C86.8191 4.25767 86.9956 4.68199 86.9961 5.12459V93.5561C86.9956 93.9987 86.8191 94.4231 86.5053 94.736C86.1916 95.049 85.7662 95.225 85.3224 95.2255Z" fill="#323232"/>
<path id="Vector_3" d="M54.619 2.1192C54.8741 2.1192 55.0808 1.91294 55.0808 1.65851C55.0808 1.40407 54.8741 1.19781 54.619 1.19781C54.3639 1.19781 54.1571 1.40407 54.1571 1.65851C54.1571 1.91294 54.3639 2.1192 54.619 2.1192Z" fill="white"/>
<path id="Vector_4" d="M176.774 99H0.226448C0.16639 99 0.108792 98.9762 0.0663249 98.9339C0.0238575 98.8915 0 98.8341 0 98.7741C0 98.7142 0.0238575 98.6568 0.0663249 98.6144C0.108792 98.5721 0.16639 98.5483 0.226448 98.5483H176.774C176.834 98.5483 176.891 98.5721 176.934 98.6144C176.976 98.6568 177 98.7142 177 98.7741C177 98.8341 176.976 98.8915 176.934 98.9339C176.891 98.9762 176.834 99 176.774 99Z" fill="#CACACA"/>
<path id="Vector_5" d="M54.8495 73.29C58.1056 73.29 60.7452 70.6572 60.7452 67.4093C60.7452 64.1615 58.1056 61.5286 54.8495 61.5286C51.5933 61.5286 48.9537 64.1615 48.9537 67.4093C48.9537 70.6572 51.5933 73.29 54.8495 73.29Z" fill="#FF0505"/>
<path id="Vector_6" d="M58.5405 56.1222H51.1583L46.7015 34.3768C46.587 33.2413 46.7123 32.0944 47.0694 31.0102C47.4264 29.926 48.0073 28.9284 48.7745 28.0818C49.5417 27.2352 50.4783 26.5583 51.5238 26.0948C52.5693 25.6314 53.7006 25.3915 54.8448 25.3909C55.9889 25.3902 57.1205 25.6287 58.1666 26.0909C59.2127 26.5531 60.15 27.2289 60.9183 28.0746C61.6865 28.9203 62.2685 29.9172 62.6269 31.001C62.9852 32.0848 63.1119 33.2315 62.9987 34.3671L58.5405 56.1222Z" fill="#FF0505"/>
<path id="Vector_7" d="M83.8557 26.8931H110.838C112.14 26.8931 113.403 27.335 114.42 28.1461C115.437 28.9572 116.147 30.0892 116.433 31.3561L130.067 91.6747C130.216 92.3326 130.218 93.015 130.075 93.6741C129.931 94.3331 129.644 94.9528 129.235 95.4897C128.826 96.0267 128.304 96.4678 127.706 96.7823C127.108 97.0968 126.448 97.2769 125.773 97.3101L98.0348 98.6733C96.5495 98.7463 95.0884 98.2777 93.924 97.3551C92.7596 96.4325 91.9715 95.1188 91.7068 93.6592L83.973 51.0133L82.5101 42.9466L80.3513 31.0426C80.2589 30.5327 80.2803 30.0088 80.4141 29.5081C80.5479 29.0075 80.7908 28.5424 81.1255 28.1461C81.4602 27.7498 81.8784 27.4321 82.3503 27.2155C82.8222 26.9989 83.3362 26.8888 83.8557 26.8931Z" fill="#5CA64F"/>
<path id="Vector_8" d="M107.286 28.1934H110.435C111.34 28.1934 112.217 28.502 112.922 29.0679C113.626 29.6338 114.115 30.423 114.308 31.3044L127.395 91.1309C127.47 91.4753 127.47 91.832 127.394 92.1764C127.319 92.5208 127.17 92.8449 126.957 93.1266C126.745 93.4082 126.474 93.6408 126.163 93.8084C125.852 93.9761 125.508 94.0748 125.156 94.0978L97.5074 95.9053C96.7274 95.9563 95.9558 95.719 95.34 95.2388C94.7242 94.7585 94.3073 94.0689 94.1687 93.3016L83.002 31.4651C82.9297 31.0649 82.9464 30.6537 83.0508 30.2606C83.1553 29.8675 83.3449 29.5021 83.6064 29.1901C83.8679 28.878 84.1949 28.6271 84.5642 28.4549C84.9336 28.2827 85.3363 28.1934 85.744 28.1934H88.732C89.0212 28.1934 89.3023 28.2885 89.5318 28.464C89.7614 28.6394 89.9265 28.8855 90.0017 29.164C90.0681 29.4099 90.2138 29.6271 90.4165 29.782C90.6191 29.9369 90.8673 30.0209 91.1226 30.0209H105.307C105.807 30.0209 106.289 29.8327 106.656 29.4938C107.022 29.155 107.247 28.6906 107.286 28.1934Z" fill="white"/>
<path id="Vector_9" d="M121.24 47.3707C121.328 47.4278 121.412 47.4916 121.49 47.5618L130.63 45.2378L131.254 43.0386L134.704 43.5433L133.98 47.5437C133.921 47.8669 133.759 48.1624 133.518 48.3859C133.277 48.6094 132.969 48.7488 132.642 48.7832L121.97 49.9042C121.796 50.2694 121.515 50.5732 121.164 50.7751C120.813 50.977 120.408 51.0675 120.004 51.0345C119.6 51.0015 119.215 50.8465 118.902 50.5903C118.588 50.334 118.36 49.9886 118.248 49.6C118.136 49.2114 118.145 48.7979 118.275 48.4147C118.404 48.0314 118.647 47.6965 118.972 47.4545C119.297 47.2125 119.688 47.0749 120.093 47.0599C120.498 47.0449 120.898 47.1534 121.24 47.3707Z" fill="#FFB6B6"/>
<path id="Vector_10" d="M114.718 55.6191C117.974 55.6191 120.613 52.9863 120.613 49.7384C120.613 46.4906 117.974 43.8577 114.718 43.8577C111.462 43.8577 108.822 46.4906 108.822 49.7384C108.822 52.9863 111.462 55.6191 114.718 55.6191Z" fill="#FF0505"/>
<path id="Vector_11" d="M118.409 38.4513H111.027L106.57 16.7059C106.455 15.5704 106.581 14.4235 106.938 13.3393C107.295 12.2551 107.876 11.2575 108.643 10.4109C109.41 9.56427 110.347 8.88741 111.392 8.42393C112.438 7.96045 113.569 7.72065 114.713 7.71997C115.857 7.7193 116.989 7.95776 118.035 8.42C119.081 8.88224 120.018 9.558 120.787 10.4037C121.555 11.2494 122.137 12.2463 122.495 13.3301C122.854 14.4139 122.98 15.5606 122.867 16.6962L118.409 38.4513Z" fill="#FF0505"/>
<path id="Vector_12" d="M135.321 45.5397L132.966 47.5657L129.672 50.3979L128.217 42.973L128.065 42.2009L127.945 41.5882L131.283 35.7891L134.066 35.9484L134.256 35.9598L134.26 36.0015L134.303 36.3904L134.874 41.5085L134.887 41.6318L135.321 45.5397Z" fill="#3F3D56"/>
<path id="Vector_13" d="M119.931 96.3177L117.6 96.3175L116.49 87.3469L119.932 87.3471L119.931 96.3177Z" fill="#FFB6B6"/>
<path id="Vector_14" d="M120.526 98.572L113.008 98.5717V98.4769C113.008 97.7028 113.316 96.9604 113.865 96.413C114.414 95.8657 115.158 95.5581 115.934 95.5581H115.934L120.526 95.5583L120.526 98.572Z" fill="#2F2E41"/>
<path id="Vector_15" d="M144.275 96.5074L141.943 96.5072L140.834 87.5366L144.275 87.5368L144.275 96.5074Z" fill="#FFB6B6"/>
<path id="Vector_16" d="M144.87 98.7617L137.351 98.7614V98.6666C137.351 97.8925 137.66 97.1501 138.209 96.6027C138.757 96.0554 139.502 95.7478 140.278 95.7478H140.278L144.87 95.748L144.87 98.7617Z" fill="#2F2E41"/>
<path id="Vector_17" d="M146.138 92.5569L139.862 93.5054L130.732 62.6829L121.034 93.6951L113.997 92.7466L123.126 56.7036V53.8581L124.362 49.5898L124.233 48.4345L123.333 40.3552L122.944 36.8515L122.918 36.6251C122.897 36.4352 122.948 36.2442 123.06 36.0893C123.172 35.9344 123.338 35.8267 123.526 35.7872L126.454 35.1726H131.241L134.066 35.9485L134.26 36.0016L134.347 36.0263L134.303 36.3905L133.641 41.9259L133.605 42.2295L132.966 47.5657L132.826 48.7362C138.341 52.7199 138.531 56.7036 138.531 56.7036L146.138 92.5569Z" fill="#5CA64F"/>
<path id="Vector_18" d="M128.269 32.7726C130.849 32.7726 132.941 30.6866 132.941 28.1133C132.941 25.5401 130.849 23.4541 128.269 23.4541C125.69 23.4541 123.598 25.5401 123.598 28.1133C123.598 30.6866 125.69 32.7726 128.269 32.7726Z" fill="#C1733A"/>
<path id="Vector_19" d="M133.176 47.6655L123.935 48.8708L124.108 50.1875L133.348 48.9822L133.176 47.6655Z" fill="#002E15"/>
<path id="Vector_20" d="M111.541 49.2678C111.629 49.3248 111.713 49.3887 111.791 49.4588L120.931 47.1349L121.554 44.9356L125.005 45.4404L124.28 49.4407C124.222 49.7639 124.06 50.0594 123.818 50.2829C123.577 50.5064 123.27 50.6458 122.942 50.6802L112.271 51.8012C112.097 52.1665 111.816 52.4702 111.464 52.6722C111.113 52.8741 110.708 52.9645 110.304 52.9315C109.9 52.8985 109.516 52.7436 109.202 52.4873C108.889 52.2311 108.661 51.8857 108.549 51.497C108.437 51.1084 108.446 50.695 108.575 50.3117C108.705 49.9284 108.948 49.5936 109.273 49.3515C109.597 49.1095 109.988 48.9719 110.394 48.9569C110.799 48.942 111.199 49.0504 111.541 49.2678Z" fill="#FFB6B6"/>
<path id="Vector_21" d="M125.599 36.9747L123.982 35.7417C123.545 35.5763 122.946 36.0461 122.841 36.5005L120.559 45.7958L125.313 49.2104L125.979 48.167L125.599 36.9747Z" fill="#3F3D56"/>
<g id="Group" opacity="0.2">
<path id="Vector_22" d="M134.874 41.5086C134.47 41.6683 134.059 41.8076 133.641 41.9259C133.508 41.9658 133.371 42.0037 133.236 42.0397C132.346 42.2861 131.432 42.4337 130.509 42.4798C130.112 42.4966 129.714 42.4858 129.319 42.4476C128.894 42.4054 128.474 42.3228 128.065 42.201C128.052 42.1972 128.037 42.1934 128.023 42.1896C127.173 41.9488 126.393 41.5069 125.751 40.9015C125.607 40.7621 125.473 40.6131 125.349 40.4557C124.994 40.0219 124.734 39.519 124.584 38.9791C124.435 38.4391 124.4 37.8741 124.482 37.32C124.498 37.2196 124.52 37.1201 124.547 37.0222C124.619 36.7552 124.713 36.495 124.83 36.2444C124.882 36.1268 124.939 36.0111 124.999 35.8973L127.149 35.1726H131.241L134.066 35.9485L134.256 35.9599L134.26 36.0016L134.347 36.0263L134.303 36.3905L134.874 41.5086Z" fill="black"/>
</g>
<path id="Vector_23" d="M124.69 24.256C123.816 24.1492 122.858 24.2247 122.177 24.781C121.496 25.3372 121.276 26.4935 121.921 27.0912C122.492 27.6203 123.384 27.4959 124.149 27.6463C124.807 27.7935 125.397 28.1569 125.824 28.6781C126.251 29.1994 126.49 29.8485 126.504 30.5215C126.492 32.4515 124.635 33.9131 124.302 35.8143C124.074 37.1118 124.623 38.4774 125.571 39.3939C126.52 40.3104 127.824 40.8058 129.137 40.9399C130.451 41.0741 131.779 40.8692 133.056 40.5325C134.338 40.1944 135.6 39.7148 136.676 38.9413C137.752 38.1678 138.634 37.0774 138.979 35.8003C139.325 34.5232 139.077 33.059 138.187 32.0784C137.167 30.9556 135.472 30.5694 134.59 29.3362C133.602 27.9537 133.968 25.9849 133.168 24.486C132.634 23.4853 131.623 22.8028 130.545 22.4432C129.467 22.0837 128.316 22.0127 127.18 21.9779C126.583 21.9596 125.968 21.9535 125.411 22.1706C124.855 22.3878 124.366 22.8826 124.337 23.4778C124.308 24.0729 124.69 24.256 124.69 24.256Z" fill="black"/>
</g>
<defs>
<clipPath id="clip0_2_13187">
<rect width="177" height="99" fill="white"/>
</clipPath>
</defs>
</svg>
